<svg width="1200" height="760" viewBox="0 0 1200 760" fill="none" xmlns="http://www.w3.org/2000/svg">
  <rect width="1200" height="760" rx="28" fill="#081422"/>
  <rect x="52" y="52" width="1096" height="656" rx="22" fill="#0D1D2F" stroke="#1F3A56"/>
  <rect x="96" y="108" width="1008" height="88" rx="14" fill="#12304A"/>
  <text x="130" y="158" fill="#E2E8F0" font-size="34" font-family="Arial, sans-serif" font-weight="700">Goldchain Security Operations Standard</text>
  <rect x="96" y="232" width="680" height="22" rx="8" fill="#16405F"/>
  <rect x="96" y="268" width="810" height="22" rx="8" fill="#16405F"/>
  <rect x="96" y="304" width="520" height="22" rx="8" fill="#16405F"/>
  <rect x="844" y="360" width="196" height="196" rx="24" fill="#0F3048" stroke="#22D3EE" stroke-width="3"/>
  <path d="M942 420C942 394 921 373 895 373C869 373 848 394 848 420V448H942V420Z" fill="#22D3EE" fill-opacity=".25"/>
  <rect x="860" y="448" width="70" height="78" rx="12" fill="#22D3EE" fill-opacity=".25"/>
  <circle cx="895" cy="486" r="10" fill="#67E8F9"/>
  <text x="96" y="520" fill="#7DD3FC" font-size="28" font-family="Arial, sans-serif">Issued: 2026</text>
  <text x="96" y="566" fill="#CBD5E1" font-size="24" font-family="Arial, sans-serif">Standard: Encrypted Systems Compliance</text>
</svg>
