<svg width="1600" height="980" viewBox="0 0 1600 980" fill="none" xmlns="http://www.w3.org/2000/svg">
  <defs>
    <linearGradient id="bg" x1="800" y1="20" x2="800" y2="940" gradientUnits="userSpaceOnUse">
      <stop stop-color="#0B0F21"/>
      <stop offset="1" stop-color="#070A17"/>
    </linearGradient>
    <radialGradient id="glowLeft" cx="0" cy="0" r="1" gradientUnits="userSpaceOnUse" gradientTransform="translate(330 180) rotate(45) scale(460 260)">
      <stop stop-color="#FF5CCB" stop-opacity="0.9"/>
      <stop offset="1" stop-color="#FF5CCB" stop-opacity="0"/>
    </radialGradient>
    <radialGradient id="glowRight" cx="0" cy="0" r="1" gradientUnits="userSpaceOnUse" gradientTransform="translate(1270 180) rotate(135) scale(460 260)">
      <stop stop-color="#FF74D5" stop-opacity="0.9"/>
      <stop offset="1" stop-color="#FF74D5" stop-opacity="0"/>
    </radialGradient>
    <linearGradient id="cardLine" x1="250" y1="0" x2="250" y2="200" gradientUnits="userSpaceOnUse">
      <stop stop-color="#FFFFFF" stop-opacity="0.18"/>
      <stop offset="1" stop-color="#FFFFFF" stop-opacity="0.04"/>
    </linearGradient>
    <linearGradient id="cta" x1="0" y1="0" x2="380" y2="0" gradientUnits="userSpaceOnUse">
      <stop stop-color="#8E57FF"/>
      <stop offset="1" stop-color="#FB5D86"/>
    </linearGradient>
    <linearGradient id="accent" x1="0" y1="0" x2="1" y2="1">
      <stop stop-color="#7A5CFF"/>
      <stop offset="1" stop-color="#F161A4"/>
    </linearGradient>
    <filter id="soft" x="-60" y="-60" width="1720" height="1100" filterUnits="userSpaceOnUse" color-interpolation-filters="sRGB">
      <feGaussianBlur stdDeviation="20"/>
    </filter>
  </defs>

  <rect x="10" y="10" width="1580" height="960" rx="22" fill="url(#bg)" stroke="#2C3047" stroke-width="2"/>
  <rect x="10" y="10" width="1580" height="960" rx="22" fill="url(#glowLeft)"/>
  <rect x="10" y="10" width="1580" height="960" rx="22" fill="url(#glowRight)"/>

  <circle cx="210" cy="140" r="2" fill="#D8DCEF" fill-opacity="0.9"/>
  <circle cx="640" cy="120" r="2" fill="#D8DCEF" fill-opacity="0.8"/>
  <circle cx="910" cy="160" r="2" fill="#D8DCEF" fill-opacity="0.8"/>
  <circle cx="1250" cy="120" r="2" fill="#D8DCEF" fill-opacity="0.9"/>

  <text x="800" y="190" text-anchor="middle" fill="#F6F8FF" font-family="Poppins, Segoe UI, sans-serif" font-size="74" font-weight="500">Invest Crypto Smarter</text>
  <text x="800" y="276" text-anchor="middle" fill="#F6F8FF" font-family="Poppins, Segoe UI, sans-serif" font-size="74" font-weight="500">With AI Assistant</text>
  <text x="800" y="334" text-anchor="middle" fill="#B6BCD5" font-family="Poppins, Segoe UI, sans-serif" font-size="30">Explore market opportunities and grow your portfolio with AI insights.</text>

  <rect x="490" y="370" width="620" height="78" rx="38" fill="#0D1222" stroke="#242A43" stroke-width="2"/>
  <text x="535" y="418" fill="#7F89AE" font-family="Poppins, Segoe UI, sans-serif" font-size="26">Enter your email here</text>
  <rect x="790" y="380" width="310" height="58" rx="29" fill="url(#cta)"/>
  <text x="840" y="417" fill="#FFFFFF" font-family="Poppins, Segoe UI, sans-serif" font-size="24" font-weight="500">Subscribe For Free</text>
  <path d="M1064 405H1088M1088 405L1078 395M1088 405L1078 415" stroke="#FFFFFF" stroke-width="3" stroke-linecap="round" stroke-linejoin="round"/>

  <g opacity="0.35" filter="url(#soft)">
    <rect x="120" y="490" width="1360" height="340" rx="30" fill="#121A35"/>
  </g>

  <rect x="95" y="460" width="270" height="250" rx="20" fill="#10182E" stroke="url(#cardLine)"/>
  <text x="128" y="502" fill="#7A85AA" font-family="Poppins, Segoe UI, sans-serif" font-size="22">My Portfolio</text>
  <text x="128" y="548" fill="#F7F9FF" font-family="Poppins, Segoe UI, sans-serif" font-size="44">$1,948.121</text>
  <path d="M122 652C160 620 198 620 230 610C262 600 286 548 322 575C342 590 354 608 365 615" stroke="url(#accent)" stroke-width="4" stroke-linecap="round"/>
  <circle cx="288" cy="598" r="6" fill="#F161A4"/>

  <rect x="380" y="490" width="380" height="190" rx="22" fill="#10182E" stroke="url(#cardLine)"/>
  <circle cx="570" cy="584" r="58" fill="url(#accent)"/>
  <circle cx="570" cy="584" r="36" fill="#F2F4FF"/>
  <text x="510" y="650" fill="#A6AECD" font-family="Poppins, Segoe UI, sans-serif" font-size="28">Secured</text>

  <rect x="780" y="460" width="300" height="250" rx="20" fill="#181533" stroke="url(#cardLine)"/>
  <text x="814" y="502" fill="#97A0C3" font-family="Poppins, Segoe UI, sans-serif" font-size="22">Alexandria (AXR)</text>
  <text x="814" y="548" fill="#F9FAFF" font-family="Poppins, Segoe UI, sans-serif" font-size="52">$27,942.65</text>
  <circle cx="1024" cy="510" r="16" fill="#FFFFFF" fill-opacity="0.95"/>
  <path d="M1017 510H1031M1024 503V517" stroke="#59608A" stroke-width="3" stroke-linecap="round"/>

  <rect x="1110" y="505" width="150" height="200" rx="20" fill="#11182C" stroke="url(#cardLine)"/>
  <text x="1144" y="604" fill="#DCE1F5" font-family="Poppins, Segoe UI, sans-serif" font-size="36">Please Wait</text>
  <text x="1144" y="640" fill="#727B9F" font-family="Poppins, Segoe UI, sans-serif" font-size="22">Still On Progress</text>

  <rect x="1278" y="455" width="220" height="395" rx="22" fill="#141B32" stroke="url(#cardLine)"/>
  <rect x="1302" y="490" width="172" height="206" rx="18" fill="url(#accent)" fill-opacity="0.28"/>
  <text x="1322" y="718" fill="#A8B1D0" font-family="Poppins, Segoe UI, sans-serif" font-size="26">Cash</text>
  <text x="1420" y="718" fill="#F6F8FF" font-family="Poppins, Segoe UI, sans-serif" font-size="26">$128.121</text>
  <text x="1322" y="754" fill="#A8B1D0" font-family="Poppins, Segoe UI, sans-serif" font-size="26">Portfolio</text>
  <text x="1418" y="754" fill="#F6F8FF" font-family="Poppins, Segoe UI, sans-serif" font-size="26">$1,820.000</text>

  <rect x="380" y="705" width="350" height="145" rx="20" fill="#10182E" stroke="url(#cardLine)"/>
  <text x="420" y="755" fill="#DCE1F5" font-family="Poppins, Segoe UI, sans-serif" font-size="38">Investment Style</text>
  <text x="420" y="795" fill="#ED6CAF" font-family="Poppins, Segoe UI, sans-serif" font-size="26">Aggressive</text>

  <rect x="742" y="705" width="310" height="145" rx="20" fill="#10182E" stroke="url(#cardLine)"/>
  <text x="780" y="758" fill="#9AA4C8" font-family="Poppins, Segoe UI, sans-serif" font-size="24">My Wallet</text>
  <text x="780" y="810" fill="#F8FAFF" font-family="Poppins, Segoe UI, sans-serif" font-size="56">$10.840</text>

  <rect x="1065" y="705" width="410" height="145" rx="20" fill="#10182E" stroke="url(#cardLine)"/>
  <text x="1103" y="758" fill="#9AA4C8" font-family="Poppins, Segoe UI, sans-serif" font-size="24">My Goals</text>
  <text x="1103" y="810" fill="#F8FAFF" font-family="Poppins, Segoe UI, sans-serif" font-size="48">$1,948.121</text>
  <rect x="1328" y="781" width="110" height="30" rx="15" fill="#21283F"/>
  <text x="1350" y="803" fill="#98A2C6" font-family="Poppins, Segoe UI, sans-serif" font-size="18">Change</text>
</svg>
