<svg width="600" height="600" viewBox="0 0 600 600" fill="none" xmlns="http://www.w3.org/2000/svg">
  <rect width="600" height="600" rx="32" fill="#081426"/>
  <circle cx="300" cy="260" r="150" fill="#1F2937"/>
  <ellipse cx="300" cy="430" rx="180" ry="120" fill="#0F172A"/>
  <ellipse cx="300" cy="260" rx="92" ry="110" fill="#E8C29C"/>
  <path d="M206 248C214 166 256 122 300 122C344 122 386 166 394 248V280C375 244 337 220 300 220C263 220 225 244 206 280V248Z" fill="#1E1B4B"/>
  <circle cx="268" cy="258" r="8" fill="#1F2937"/>
  <circle cx="332" cy="258" r="8" fill="#1F2937"/>
  <path d="M268 304C278 318 322 318 332 304" stroke="#7C2D12" stroke-width="6" stroke-linecap="round"/>
  <rect x="238" y="408" width="124" height="42" rx="16" fill="#E8C29C"/>
  <path d="M170 520C186 458 236 438 300 438C364 438 414 458 430 520" fill="#312E81"/>
</svg>
