<svg width="600" height="600" viewBox="0 0 600 600" fill="none" xmlns="http://www.w3.org/2000/svg">
  <rect width="600" height="600" rx="32" fill="#0A1220"/>
  <circle cx="300" cy="260" r="150" fill="#1E293B"/>
  <ellipse cx="300" cy="430" rx="180" ry="120" fill="#0F172A"/>
  <ellipse cx="300" cy="260" rx="92" ry="110" fill="#E2B58A"/>
  <path d="M210 232C218 170 258 140 300 140C342 140 382 170 390 232" fill="#111827"/>
  <circle cx="268" cy="256" r="8" fill="#1F2937"/>
  <circle cx="332" cy="256" r="8" fill="#1F2937"/>
  <path d="M267 302C277 316 323 316 333 302" stroke="#7C2D12" stroke-width="6" stroke-linecap="round"/>
  <rect x="238" y="408" width="124" height="42" rx="16" fill="#E2B58A"/>
  <path d="M170 520C185 458 236 438 300 438C364 438 415 458 430 520" fill="#0B2447"/>
</svg>
