<svg width="1200" height="760" viewBox="0 0 1200 760" fill="none" xmlns="http://www.w3.org/2000/svg">
  <rect width="1200" height="760" rx="28" fill="#070D1A"/>
  <rect x="40" y="40" width="1120" height="680" rx="20" fill="#0C1528" stroke="#1E2C47"/>
  <rect x="72" y="84" width="1056" height="74" rx="12" fill="#111D36"/>
  <text x="96" y="129" fill="#E2E8F0" font-size="30" font-family="Arial, sans-serif" font-weight="700">Goldchain Live Trading Dashboard</text>
  <rect x="72" y="190" width="800" height="480" rx="16" fill="#0A1224" stroke="#203252"/>
  <rect x="896" y="190" width="232" height="230" rx="16" fill="#0F1A32" stroke="#243B60"/>
  <rect x="896" y="440" width="232" height="230" rx="16" fill="#0F1A32" stroke="#243B60"/>
  <path d="M106 590L180 540L250 560L330 470L398 500L470 420L548 460L620 390L700 430L770 360L840 390" stroke="#22D3EE" stroke-width="4" stroke-linecap="round"/>
  <g stroke="#334155" stroke-width="1">
    <line x1="104" y1="260" x2="840" y2="260"/>
    <line x1="104" y1="330" x2="840" y2="330"/>
    <line x1="104" y1="400" x2="840" y2="400"/>
    <line x1="104" y1="470" x2="840" y2="470"/>
    <line x1="104" y1="540" x2="840" y2="540"/>
  </g>
  <g>
    <rect x="120" y="500" width="12" height="56" rx="4" fill="#EF4444"/>
    <rect x="150" y="460" width="12" height="92" rx="4" fill="#22C55E"/>
    <rect x="180" y="472" width="12" height="74" rx="4" fill="#22C55E"/>
    <rect x="210" y="520" width="12" height="44" rx="4" fill="#EF4444"/>
    <rect x="240" y="438" width="12" height="118" rx="4" fill="#22C55E"/>
    <rect x="270" y="470" width="12" height="88" rx="4" fill="#EF4444"/>
    <rect x="300" y="420" width="12" height="130" rx="4" fill="#22C55E"/>
    <rect x="330" y="446" width="12" height="98" rx="4" fill="#22C55E"/>
    <rect x="360" y="508" width="12" height="54" rx="4" fill="#EF4444"/>
    <rect x="390" y="430" width="12" height="122" rx="4" fill="#22C55E"/>
    <rect x="420" y="468" width="12" height="86" rx="4" fill="#EF4444"/>
    <rect x="450" y="412" width="12" height="140" rx="4" fill="#22C55E"/>
    <rect x="480" y="432" width="12" height="112" rx="4" fill="#22C55E"/>
    <rect x="510" y="498" width="12" height="56" rx="4" fill="#EF4444"/>
    <rect x="540" y="404" width="12" height="148" rx="4" fill="#22C55E"/>
    <rect x="570" y="430" width="12" height="114" rx="4" fill="#22C55E"/>
    <rect x="600" y="486" width="12" height="64" rx="4" fill="#EF4444"/>
    <rect x="630" y="392" width="12" height="152" rx="4" fill="#22C55E"/>
    <rect x="660" y="430" width="12" height="110" rx="4" fill="#EF4444"/>
    <rect x="690" y="374" width="12" height="164" rx="4" fill="#22C55E"/>
    <rect x="720" y="400" width="12" height="128" rx="4" fill="#22C55E"/>
    <rect x="750" y="448" width="12" height="82" rx="4" fill="#EF4444"/>
  </g>
  <text x="920" y="236" fill="#94A3B8" font-size="18" font-family="Arial, sans-serif">Open Positions</text>
  <text x="920" y="270" fill="#E2E8F0" font-size="30" font-family="Arial, sans-serif" font-weight="700">12</text>
  <text x="920" y="328" fill="#94A3B8" font-size="18" font-family="Arial, sans-serif">Daily P&amp;L</text>
  <text x="920" y="362" fill="#34D399" font-size="30" font-family="Arial, sans-serif" font-weight="700">+$18,420</text>
  <text x="920" y="486" fill="#94A3B8" font-size="18" font-family="Arial, sans-serif">Win Rate</text>
  <text x="920" y="520" fill="#E2E8F0" font-size="30" font-family="Arial, sans-serif" font-weight="700">71.8%</text>
  <text x="920" y="578" fill="#94A3B8" font-size="18" font-family="Arial, sans-serif">Execution Latency</text>
  <text x="920" y="612" fill="#22D3EE" font-size="30" font-family="Arial, sans-serif" font-weight="700">38ms</text>
</svg>
