<svg width="800" height="520" viewBox="0 0 800 520" fill="none" xmlns="http://www.w3.org/2000/svg">
  <rect width="800" height="520" rx="28" fill="#060A16"/>
  <path d="M90 390L220 280L330 320L470 210L620 250L730 140" stroke="#34D399" stroke-width="3" stroke-linecap="round"/>
  <path d="M90 430L210 360L340 380L470 320L610 340L730 300" stroke="#22D3EE" stroke-width="3" stroke-linecap="round" opacity=".7"/>
  <g fill="#A7F3D0">
    <circle cx="90" cy="390" r="8"/><circle cx="220" cy="280" r="8"/><circle cx="330" cy="320" r="8"/>
    <circle cx="470" cy="210" r="8"/><circle cx="620" cy="250" r="8"/><circle cx="730" cy="140" r="8"/>
  </g>
  <g fill="#67E8F9">
    <circle cx="90" cy="430" r="7"/><circle cx="210" cy="360" r="7"/><circle cx="340" cy="380" r="7"/>
    <circle cx="470" cy="320" r="7"/><circle cx="610" cy="340" r="7"/><circle cx="730" cy="300" r="7"/>
  </g>
  <rect x="110" y="76" width="180" height="84" rx="16" fill="#0F172A" stroke="#1E293B"/>
  <text x="130" y="108" fill="#94A3B8" font-family="Arial, sans-serif" font-size="14">24H VOLUME</text>
  <text x="130" y="136" fill="#E2E8F0" font-family="Arial, sans-serif" font-size="24">$145.2M</text>
  <rect x="510" y="64" width="180" height="84" rx="16" fill="#0F172A" stroke="#1E293B"/>
  <text x="530" y="96" fill="#94A3B8" font-family="Arial, sans-serif" font-size="14">WIN RATE</text>
  <text x="530" y="124" fill="#E2E8F0" font-family="Arial, sans-serif" font-size="24">71.4%</text>
</svg>
